<svg xmlns="http://www.w3.org/2000/svg" viewBox="0 0 24 24" width="24" height="24"><path fill="#07C160" d="M8.686 13.288c-1.232 0-2.232-1-2.232-2.232s1-2.232 2.232-2.232 2.232 1 2.232 2.232c0 1.232-1 2.232-2.232 2.232zm6.628 0c-1.232 0-2.232-1-2.232-2.232s1-2.232 2.232-2.232 2.232 1 2.232 2.232c0 1.232-1 2.232-2.232 2.232zm-10.4-7.566C1.767 7.994 0 10.802 0 14.11c0 1.89.512 3.63 1.424 5.097.177.288.384.177.384-.16v-1.92c0-.32.256-.577.576-.577h2.4c.32 0 .577.256.577.577v2.88c0 .32.256.577.576.577h2.4c.32 0 .577-.256.577-.577v-2.88c0-.32.256-.577.576-.577h4.8c.32 0 .577.256.577.577v2.88c0 .32.256.577.576.577h2.4c.32 0 .577-.256.577-.577v-2.88c0-.32.256-.577.576-.577h2.4c.32 0 .577.256.577.577v1.92c0 .337.207.448.384.16.912-1.467 1.424-3.207 1.424-5.097 0-3.308-1.767-6.116-4.914-7.388-1.6-.64-3.43-1-5.314-1s-3.714.36-5.314 1z"/></svg>